<?xml version="1.0" encoding="UTF-8" standalone="no"?>
<!-- Created with Inkscape (http://www.inkscape.org/) -->
<svg
   xmlns:dc="http://purl.org/dc/elements/1.1/"
   xmlns:cc="http://creativecommons.org/ns#"
   xmlns:rdf="http://www.w3.org/1999/02/22-rdf-syntax-ns#"
   xmlns:svg="http://www.w3.org/2000/svg"
   xmlns="http://www.w3.org/2000/svg"
   xmlns:xlink="http://www.w3.org/1999/xlink"
   xmlns:sodipodi="http://sodipodi.sourceforge.net/DTD/sodipodi-0.dtd"
   xmlns:inkscape="http://www.inkscape.org/namespaces/inkscape"
   width="48"
   height="48"
   id="svg2"
   sodipodi:version="0.32"
   inkscape:version="0.46"
   version="1.0"
   inkscape:export-filename="/home/dannie/Desktop/extension.png"
   inkscape:export-xdpi="90"
   inkscape:export-ydpi="90"
   sodipodi:docname="vst.svg"
   inkscape:output_extension="org.inkscape.output.svg.inkscape"
   style="display:inline">
  <defs
     id="defs4">
    <linearGradient
       id="linearGradient3280"
       inkscape:collect="always">
      <stop
         id="stop3282"
         offset="0"
         style="stop-color:#4e9a06;stop-opacity:1" />
      <stop
         id="stop3284"
         offset="1"
         style="stop-color:#73d216;stop-opacity:1" />
    </linearGradient>
    <linearGradient
       id="linearGradient3254"
       inkscape:collect="always">
      <stop
         id="stop3256"
         offset="0"
         style="stop-color:#4e9a06;stop-opacity:1" />
      <stop
         id="stop3258"
         offset="1"
         style="stop-color:#8ae234;stop-opacity:1" />
    </linearGradient>
    <linearGradient
       inkscape:collect="always"
       id="linearGradient3242">
      <stop
         style="stop-color:#ffffff;stop-opacity:1;"
         offset="0"
         id="stop3244" />
      <stop
         style="stop-color:#ffffff;stop-opacity:0;"
         offset="1"
         id="stop3246" />
    </linearGradient>
    <linearGradient
       inkscape:collect="always"
       id="linearGradient3228">
      <stop
         style="stop-color:#ffffff;stop-opacity:1"
         offset="0"
         id="stop3230" />
      <stop
         style="stop-color:#ffffff;stop-opacity:0.2"
         offset="1"
         id="stop3232" />
    </linearGradient>
    <linearGradient
       inkscape:collect="always"
       id="linearGradient3216">
      <stop
         style="stop-color:#a40000;stop-opacity:1"
         offset="0"
         id="stop3218" />
      <stop
         style="stop-color:#ef2929;stop-opacity:1"
         offset="1"
         id="stop3220" />
    </linearGradient>
    <linearGradient
       id="linearGradient3193"
       inkscape:collect="always">
      <stop
         id="stop3195"
         offset="0"
         style="stop-color:#ef2929;stop-opacity:1" />
      <stop
         id="stop3197"
         offset="1"
         style="stop-color:#a40000;stop-opacity:1" />
    </linearGradient>
    <linearGradient
       inkscape:collect="always"
       id="linearGradient3344">
      <stop
         style="stop-color:#ffffff;stop-opacity:1;"
         offset="0"
         id="stop3346" />
      <stop
         style="stop-color:#ffffff;stop-opacity:0;"
         offset="1"
         id="stop3348" />
    </linearGradient>
    <linearGradient
       inkscape:collect="always"
       id="linearGradient3326">
      <stop
         style="stop-color:#ffffff;stop-opacity:1;"
         offset="0"
         id="stop3328" />
      <stop
         style="stop-color:#ffffff;stop-opacity:0;"
         offset="1"
         id="stop3330" />
    </linearGradient>
    <linearGradient
       id="linearGradient3260"
       inkscape:collect="always">
      <stop
         id="stop3262"
         offset="0"
         style="stop-color:#ffffff;stop-opacity:1" />
      <stop
         id="stop3264"
         offset="1"
         style="stop-color:#ffffff;stop-opacity:0" />
    </linearGradient>
    <linearGradient
       inkscape:collect="always"
       id="linearGradient3241">
      <stop
         style="stop-color:#73d216;stop-opacity:1"
         offset="0"
         id="stop3243" />
      <stop
         style="stop-color:#4e9a06;stop-opacity:1"
         offset="1"
         id="stop3245" />
    </linearGradient>
    <linearGradient
       inkscape:collect="always"
       id="linearGradient3188">
      <stop
         style="stop-color:#eeeeec;stop-opacity:1"
         offset="0"
         id="stop3190" />
      <stop
         style="stop-color:#eeeeec;stop-opacity:0"
         offset="1"
         id="stop3192" />
    </linearGradient>
    <inkscape:perspective
       sodipodi:type="inkscape:persp3d"
       inkscape:vp_x="0 : 526.18109 : 1"
       inkscape:vp_y="0 : 1000 : 0"
       inkscape:vp_z="744.09448 : 526.18109 : 1"
       inkscape:persp3d-origin="372.04724 : 350.78739 : 1"
       id="perspective10" />
    <inkscape:perspective
       id="perspective2390"
       inkscape:persp3d-origin="372.04724 : 350.78739 : 1"
       inkscape:vp_z="744.09448 : 526.18109 : 1"
       inkscape:vp_y="0 : 1000 : 0"
       inkscape:vp_x="0 : 526.18109 : 1"
       sodipodi:type="inkscape:persp3d" />
    <inkscape:perspective
       id="perspective2405"
       inkscape:persp3d-origin="372.04724 : 350.78739 : 1"
       inkscape:vp_z="744.09448 : 526.18109 : 1"
       inkscape:vp_y="0 : 1000 : 0"
       inkscape:vp_x="0 : 526.18109 : 1"
       sodipodi:type="inkscape:persp3d" />
    <linearGradient
       inkscape:collect="always"
       xlink:href="#linearGradient3260"
       id="linearGradient3194"
       x1="21.247845"
       y1="-1.8336309"
       x2="22.752155"
       y2="32.032932"
       gradientUnits="userSpaceOnUse"
       gradientTransform="matrix(1.4759248,0,0,1.4759248,5.6110603,6.4723348)" />
    <linearGradient
       inkscape:collect="always"
       xlink:href="#linearGradient3188"
       id="linearGradient3258"
       gradientUnits="userSpaceOnUse"
       gradientTransform="matrix(1.4759247,0,0,1.4759247,-17.699358,-3.4625153)"
       x1="26.5"
       y1="14.4375"
       x2="27.5"
       y2="21.4375" />
    <linearGradient
       inkscape:collect="always"
       xlink:href="#linearGradient3193"
       id="linearGradient3269"
       gradientUnits="userSpaceOnUse"
       x1="28.13637"
       y1="26.350718"
       x2="12.587496"
       y2="9.9358454"
       gradientTransform="matrix(1.4759248,0,0,1.4759248,0.7497012,1.6109757)" />
    <linearGradient
       inkscape:collect="always"
       xlink:href="#linearGradient3241"
       id="linearGradient3281"
       gradientUnits="userSpaceOnUse"
       x1="39.5"
       y1="29.4375"
       x2="23.5"
       y2="14.4375"
       gradientTransform="matrix(1.5053198,0,0,1.5053198,-18.522926,-4.00683)" />
    <clipPath
       clipPathUnits="userSpaceOnUse"
       id="clipPath3320">
      <path
         style="fill:url(#linearGradient3324);fill-opacity:1;fill-rule:evenodd;stroke:#000000;stroke-width:1;stroke-linecap:round;stroke-linejoin:round;stroke-miterlimit:4;stroke-dasharray:none;stroke-opacity:1"
         d="M 13.295062,17.108187 C 13.295062,14.894297 14.770986,14.156336 16.984873,14.156336 C 19.198762,14.156336 22.15061,14.156336 22.15061,14.156336 C 22.15061,14.156336 22.15061,14.156336 22.15061,12.680411 C 22.15061,11.204487 20.674685,10.466524 20.674685,8.9905996 C 20.674685,7.514675 20.674685,3.824863 27.316347,3.824863 C 33.958009,3.824863 33.958009,7.514675 33.958009,8.9905996 C 33.958009,10.466524 32.482084,11.204487 32.482084,12.680411 C 32.482084,14.156336 32.482084,14.156336 32.482084,14.156336 C 32.482084,14.156336 38.385784,14.156336 40.599671,14.156336 C 42.813558,14.156336 44.289482,16.370223 44.289482,18.584109 C 44.289482,20.797997 44.289482,24.487808 44.289482,24.487808 C 44.289482,24.487808 43.421962,24.85515 42.813558,24.487808 C 42.205151,24.12047 42.075594,23.011886 40.599671,23.011886 C 39.123745,23.011886 36.909857,23.749847 36.909857,28.17762 C 36.909857,32.605397 39.24792,33.343358 40.599671,33.343358 C 41.951418,33.343358 42.229253,32.232033 42.813558,31.867434 C 43.397862,31.502833 44.289482,31.867434 44.289482,31.867434 C 44.289482,31.867434 44.289482,38.509094 44.289482,40.722983 C 44.289482,42.936869 43.551519,43.674831 41.337632,43.674831 C 39.123745,43.674831 31.006159,43.674831 31.006159,43.674831 C 31.006159,43.674831 30.704366,42.815347 31.006159,42.198906 C 31.423324,41.346812 32.482084,40.996288 32.482084,39.247058 C 32.482084,37.497826 32.482084,34.819283 27.316347,34.819283 C 22.15061,34.819283 22.15061,37.480358 22.15061,39.247058 C 22.15061,41.013757 23.202916,41.348131 23.626534,42.198906 C 23.913666,42.775568 23.626534,43.674831 23.626534,43.674831 C 23.626534,43.674831 19.198762,43.674831 16.984873,43.674831 C 14.770986,43.674831 13.295062,42.198906 13.295062,39.985019 C 13.295062,38.509094 13.295062,33.343358 13.295062,33.343358 C 13.295062,33.343358 12.557098,33.343358 11.819137,33.343358 C 11.081176,33.343358 10.343212,34.819283 8.1293251,34.819283 C 5.9154379,34.819283 2.9635884,34.819283 2.9635884,28.17762 C 2.9635884,21.535961 6.2536319,21.535961 8.1293251,21.535961 C 10.005019,21.535961 11.081176,23.011886 11.819137,23.011886 C 12.328423,23.011886 12.844137,23.011886 13.295062,23.011886 C 13.295062,23.011886 13.295062,19.322074 13.295062,17.108187 z"
         id="path3322"
         sodipodi:nodetypes="czczzzzzczzczzzzzczzcszzzsczzczzzzscz" />
    </clipPath>
    <linearGradient
       inkscape:collect="always"
       xlink:href="#linearGradient3241"
       id="linearGradient3324"
       gradientUnits="userSpaceOnUse"
       gradientTransform="matrix(1.4759248,0,0,1.4759248,0.7497012,1.6109757)"
       x1="28.495689"
       y1="27.069359"
       x2="12.587496"
       y2="9.9358454" />
    <linearGradient
       inkscape:collect="always"
       xlink:href="#linearGradient3326"
       id="linearGradient3332"
       x1="15.713589"
       y1="13.249847"
       x2="40.289482"
       y2="41.499847"
       gradientUnits="userSpaceOnUse" />
    <linearGradient
       inkscape:collect="always"
       xlink:href="#linearGradient3326"
       id="linearGradient3336"
       gradientUnits="userSpaceOnUse"
       x1="15.713589"
       y1="13.249847"
       x2="40.289482"
       y2="41.499847" />
    <linearGradient
       inkscape:collect="always"
       xlink:href="#linearGradient3344"
       id="linearGradient3352"
       x1="18.03125"
       y1="9.3125"
       x2="24.5"
       y2="25.4375"
       gradientUnits="userSpaceOnUse" />
    <linearGradient
       inkscape:collect="always"
       xlink:href="#linearGradient3344"
       id="linearGradient3367"
       gradientUnits="userSpaceOnUse"
       x1="18.03125"
       y1="9.3125"
       x2="24.125"
       y2="27.8125" />
    <linearGradient
       inkscape:collect="always"
       xlink:href="#linearGradient3326"
       id="linearGradient3387"
       gradientUnits="userSpaceOnUse"
       x1="29.031662"
       y1="62.499847"
       x2="25.664482"
       y2="-18.250153" />
    <filter
       inkscape:collect="always"
       id="filter3226"
       x="-0.044835199"
       width="1.0896704"
       y="-0.61274773"
       height="2.2254956">
      <feGaussianBlur
         inkscape:collect="always"
         stdDeviation="0.76593467"
         id="feGaussianBlur3228" />
    </filter>
    <linearGradient
       inkscape:collect="always"
       xlink:href="#linearGradient3216"
       id="linearGradient3222"
       x1="9"
       y1="17"
       x2="26"
       y2="42"
       gradientUnits="userSpaceOnUse" />
    <linearGradient
       inkscape:collect="always"
       xlink:href="#linearGradient3228"
       id="linearGradient3234"
       x1="19"
       y1="43"
       x2="19"
       y2="15"
       gradientUnits="userSpaceOnUse" />
    <linearGradient
       inkscape:collect="always"
       xlink:href="#linearGradient3242"
       id="linearGradient3248"
       x1="11"
       y1="-2"
       x2="17"
       y2="28.5"
       gradientUnits="userSpaceOnUse" />
    <linearGradient
       inkscape:collect="always"
       xlink:href="#linearGradient3254"
       id="linearGradient3252"
       gradientUnits="userSpaceOnUse"
       x1="9"
       y1="17"
       x2="26"
       y2="42"
       gradientTransform="translate(16.024076,0.5)" />
    <linearGradient
       inkscape:collect="always"
       xlink:href="#linearGradient3228"
       id="linearGradient3262"
       gradientUnits="userSpaceOnUse"
       x1="19"
       y1="43"
       x2="19"
       y2="15"
       gradientTransform="translate(16,0)" />
    <linearGradient
       inkscape:collect="always"
       xlink:href="#linearGradient3242"
       id="linearGradient3266"
       gradientUnits="userSpaceOnUse"
       x1="13"
       y1="11"
       x2="17"
       y2="28.5"
       gradientTransform="translate(16.000103,2.5e-4)" />
    <linearGradient
       inkscape:collect="always"
       xlink:href="#linearGradient3242"
       id="linearGradient3274"
       gradientUnits="userSpaceOnUse"
       x1="11"
       y1="-2"
       x2="17"
       y2="28.5"
       gradientTransform="translate(15.999853,0)" />
    <linearGradient
       inkscape:collect="always"
       xlink:href="#linearGradient3280"
       id="linearGradient3278"
       gradientUnits="userSpaceOnUse"
       x1="9"
       y1="17"
       x2="26"
       y2="42"
       gradientTransform="translate(16.475924,0)" />
    <linearGradient
       inkscape:collect="always"
       xlink:href="#linearGradient3228"
       id="linearGradient3290"
       gradientUnits="userSpaceOnUse"
       x1="19"
       y1="43"
       x2="19"
       y2="15"
       gradientTransform="translate(16,0)" />
  </defs>
  <sodipodi:namedview
     id="base"
     pagecolor="#ffffff"
     bordercolor="#666666"
     borderopacity="1.0"
     gridtolerance="10000"
     guidetolerance="10"
     objecttolerance="10"
     inkscape:pageopacity="0.0"
     inkscape:pageshadow="2"
     inkscape:zoom="1"
     inkscape:cx="11.409784"
     inkscape:cy="24.832455"
     inkscape:document-units="px"
     inkscape:current-layer="layer6"
     showgrid="false"
     borderlayer="true"
     inkscape:window-width="1280"
     inkscape:window-height="743"
     inkscape:window-x="0"
     inkscape:window-y="1"
     showguides="true"
     inkscape:guide-bbox="true">
    <inkscape:grid
       type="xygrid"
       id="grid2396"
       visible="true"
       enabled="true"
       spacingx="0.5px"
       spacingy="0.5px"
       empspacing="2" />
  </sodipodi:namedview>
  <metadata
     id="metadata7">
    <rdf:RDF>
      <cc:Work
         rdf:about="">
        <dc:format>image/svg+xml</dc:format>
        <dc:type
           rdf:resource="http://purl.org/dc/dcmitype/StillImage" />
      </cc:Work>
    </rdf:RDF>
  </metadata>
  <g
     inkscape:groupmode="layer"
     id="layer1"
     inkscape:label="Shadow"
     style="opacity:0.3;display:inline">
    <path
       sodipodi:type="arc"
       style="opacity:1;fill:#000000;fill-opacity:1;fill-rule:nonzero;stroke:none;stroke-width:1;stroke-linecap:round;stroke-linejoin:round;stroke-miterlimit:4;stroke-dasharray:none;stroke-opacity:1;filter:url(#filter3226)"
       id="path2426"
       sodipodi:cx="25.5"
       sodipodi:cy="40.5"
       sodipodi:rx="20.5"
       sodipodi:ry="1.5"
       d="M 46,40.5 A 20.5,1.5 0 1 1 5,40.5 A 20.5,1.5 0 1 1 46,40.5 z"
       transform="matrix(0.9878049,0,0,1,1.0609756,3)" />
  </g>
  <g
     inkscape:groupmode="layer"
     id="layer3"
     inkscape:label="Base"
     style="display:inline">
    <path
       sodipodi:nodetypes="ccczczzzzzczcczczzzzscz"
       id="path3211"
       d="M 11.5,7 C 11.5,4.78611 12.786113,4.5 15,4.5 C 17.021182,4.5 21.99479,4.5 24,4.5 C 26,4.5 27.5,6 27.5,8 C 27.5,10 27.524076,19.5 27.524076,19.5 C 27.524076,19.5 27.024076,19.5 26.524076,19.5 C 26.024076,19.5 25.499999,18 24.024076,18 C 22.54815,18 20.524076,19.072227 20.524076,23.5 C 20.524076,27.927777 22.672325,29 24.024076,29 C 25.375823,29 26.024076,27.5 26.524076,27.5 C 27.024076,27.5 27.5,27.5 27.5,27.5 C 27.5,27.5 27.5,38 27.5,40 C 27.5,42 26,43.5 24,43.5 C 21.241371,43.5 18.03261,43.5 15,43.5 C 13,43.5 11.5,42.213887 11.5,40 C 11.5,38.524075 11.524076,27.5 11.524076,27.5 C 11.524076,27.5 11.262037,27.5 10.524076,27.5 C 9.786115,27.5 9.524076,29 8.024076,29 C 6.524076,29 4.524076,28 4.524076,23.5 C 4.524076,19 6.524076,18 8.024076,18 C 9.524076,18 9.76204,19.5 10.500001,19.5 C 11.009287,19.5 11.049076,19.5 11.500001,19.5 C 11.500001,19.5 11.5,9.213887 11.5,7 z"
       style="opacity:1;fill:url(#linearGradient3222);fill-opacity:1;fill-rule:evenodd;stroke:none;stroke-width:1;stroke-linecap:round;stroke-linejoin:round;stroke-miterlimit:4;stroke-dasharray:none;stroke-opacity:1;display:inline" />
    <path
       style="opacity:1;fill:url(#linearGradient3278);fill-opacity:1;fill-rule:evenodd;stroke:none;stroke-width:1;stroke-linecap:round;stroke-linejoin:round;stroke-miterlimit:4;stroke-dasharray:none;stroke-opacity:1;display:inline"
       d="M 27.975924,7 C 27.975924,4.78611 29.262037,4.5 31.475924,4.5 C 33.497106,4.5 38.470714,4.5 40.475924,4.5 C 42.475924,4.5 43.975924,6 43.975924,8 C 43.975924,10 44,19.5 44,19.5 C 44,19.5 43.5,19.5 43,19.5 C 42.5,19.5 41.975923,18 40.5,18 C 39.024074,18 37,19.072227 37,23.5 C 37,27.927777 39.148249,29 40.5,29 C 41.851747,29 42.5,27.5 43,27.5 C 43.5,27.5 43.975924,27.5 43.975924,27.5 C 43.975924,27.5 43.975924,38 43.975924,40 C 43.975924,42 42.475924,43.5 40.475924,43.5 C 37.717295,43.5 34.508534,43.5 31.475924,43.5 C 29.475924,43.5 27.975924,42.213887 27.975924,40 C 27.975924,38.524075 28,27.5 28,27.5 C 28,27.5 27.737961,27.5 27,27.5 C 26.262039,27.5 26,29 24.5,29 C 23,29 21,28 21,23.5 C 21,19 23,18 24.5,18 C 26,18 26.237964,19.5 26.975925,19.5 C 27.485211,19.5 27.525,19.5 27.975925,19.5 C 27.975925,19.5 27.975924,9.213887 27.975924,7 z"
       id="path3276"
       sodipodi:nodetypes="ccczczzzzzczcczczzzzscz" />
  </g>
  <g
     inkscape:groupmode="layer"
     id="layer5"
     inkscape:label="Gloss"
     style="opacity:0.5;display:inline">
    <path
       sodipodi:nodetypes="ccczczzzzzczcczczzzzscz"
       id="path3224"
       d="M 12.5,8 C 12.5,5.5 12.5,5.5 15,5.5 C 17.021182,5.5 21.99479,5.5 24,5.5 C 25.5,5.5 26.5,6.5 26.5,9 C 26.5,11.5 26.5,19 26.5,19 C 26.5,19 27,18 26.5,18 C 26,18 25.475923,17 24,17 C 22.524074,17 19.5,18 19.5,23.5 C 19.5,29 22.672325,30 24.024076,30 C 25.375823,30 26,29 26.5,29 C 27,29 26.5,28 26.5,28 C 26.5,28 26.5,36.5 26.5,39 C 26.5,41.5 26,42.5 23,42.5 C 20.241371,42.5 18.53261,42.5 15.5,42.5 C 13.5,42.5 12.5,41.713887 12.5,39.5 C 12.5,38.024075 12.5,26.5 12.5,26.5 C 12.5,26.5 12,26.5 10.5,26.5 C 9,26.5 9.5,28 8,28 C 6.5,28 5.5,26.5 5.5,23.5 C 5.5,20.5 6.5,19 8,19 C 9.5,19 9,20.5 10.5,20.5 C 11.009286,20.5 12.049075,20.5 12.5,20.5 C 12.5,20.5 12.5,10.5 12.5,8 z"
       style="opacity:1;fill:none;fill-opacity:1;fill-rule:evenodd;stroke:url(#linearGradient3234);stroke-width:1;stroke-linecap:round;stroke-linejoin:round;stroke-miterlimit:4;stroke-dasharray:none;stroke-opacity:1;display:inline" />
    <path
       style="display:inline;opacity:1;fill:url(#linearGradient3248);fill-opacity:1;fill-rule:evenodd;stroke:none;stroke-width:1;stroke-linecap:round;stroke-linejoin:round;stroke-miterlimit:4;stroke-dasharray:none;stroke-opacity:1"
       d="M 15,5 C 12.786113,5 11.5,5.28611 11.5,7.5 C 11.5,9.713887 11.5,20 11.5,20 C 11.049075,20 11.009286,20 10.5,20 C 9.762039,20 9.53125,18.5 8.03125,18.5 C 6.53125,18.5 4.53125,19.5 4.53125,24 C 4.53125,24.03431 4.5310186,24.059846 4.53125,24.09375 C 5.0116035,22.942607 5.8330251,21.5 7.03125,21.5 C 9.03125,21.5 9.03125,23.5 12.03125,23.5 C 15.03125,23.5 15.0625,21 15.03125,18.5 C 15,16 16,12 20,12 C 24,12 24,9.5 25,8.5 C 25.528179,7.971821 26.5,6.5 26.5,6 C 25.896826,5.008514 25.298944,5 24,5 C 21.99479,5 17.021182,5 15,5 z"
       id="path3236"
       sodipodi:nodetypes="cscssscsszsscsc" />
    <path
       sodipodi:nodetypes="cscssscsszsscsc"
       id="path3272"
       d="M 30.999853,5 C 28.785966,5 27.499853,5.28611 27.499853,7.5 C 27.499853,9.713887 27.499853,20 27.499853,20 C 27.048928,20 27.009139,20 26.499853,20 C 25.761892,20 25.531103,18.5 24.031103,18.5 C 22.531103,18.5 20.531103,19.5 20.531103,24 C 20.531103,24.03431 20.530871,24.059846 20.531103,24.09375 C 21.011456,22.942607 21.832878,21.5 23.031103,21.5 C 25.031103,21.5 25.031103,23.5 28.031103,23.5 C 31.031103,23.5 31.062353,21 31.031103,18.5 C 30.999853,16 31.999853,12 35.999853,12 C 39.999853,12 39.999853,9.5 40.999853,8.5 C 41.528032,7.971821 42.499853,6.5 42.499853,6 C 41.896679,5.008514 41.298797,5 39.999853,5 C 37.994643,5 33.021035,5 30.999853,5 z"
       style="opacity:1;fill:url(#linearGradient3274);fill-opacity:1;fill-rule:evenodd;stroke:none;stroke-width:1;stroke-linecap:round;stroke-linejoin:round;stroke-miterlimit:4;stroke-dasharray:none;stroke-opacity:1;display:inline" />
    <path
       style="opacity:1;fill:none;fill-opacity:1;fill-rule:evenodd;stroke:url(#linearGradient3290);stroke-width:1;stroke-linecap:round;stroke-linejoin:round;stroke-miterlimit:4;stroke-dasharray:none;stroke-opacity:1;display:inline"
       d="M 28.5,8 C 28.5,5.5 28.5,5.5 31,5.5 C 33.021182,5.5 37.99479,5.5 40,5.5 C 41.5,5.5 42.5,6.5 42.5,9 C 42.5,11.5 42.5,19 42.5,19 C 42.5,19 43,18 42.5,18 C 42,18 41.475923,17 40,17 C 38.524074,17 35.5,18 35.5,23.5 C 35.5,29 38.672325,30 40.024076,30 C 41.375823,30 42,29 42.5,29 C 43,29 42.5,28 42.5,28 C 42.5,28 42.5,36.5 42.5,39 C 42.5,41.5 42,42.5 39,42.5 C 36.241371,42.5 34.53261,42.5 31.5,42.5 C 29.5,42.5 28.5,41.713887 28.5,39.5 C 28.5,38.024075 28.5,26.5 28.5,26.5 C 28.5,26.5 28,26.5 26.5,26.5 C 25,26.5 25.5,28 24,28 C 22.5,28 21.5,26.5 21.5,23.5 C 21.5,20.5 22.5,19 24,19 C 25.5,19 25,20.5 26.5,20.5 C 27.009286,20.5 28.049075,20.5 28.5,20.5 C 28.5,20.5 28.5,10.5 28.5,8 z"
       id="path3288"
       sodipodi:nodetypes="ccczczzzzzczcczczzzzscz" />
  </g>
  <g
     inkscape:groupmode="layer"
     id="layer6"
     inkscape:label="Gloss Dots"
     style="opacity:0.66820278;display:inline">
    <path
       transform="matrix(0.3142696,0,0,1.1313708,1.9444459,17.994199)"
       d="M 20.064155,3.3196902 A 2.3864853,1.1048543 0 1 1 15.291184,3.3196902 A 2.3864853,1.1048543 0 1 1 20.064155,3.3196902 z"
       sodipodi:ry="1.1048543"
       sodipodi:rx="2.3864853"
       sodipodi:cy="3.3196902"
       sodipodi:cx="17.67767"
       id="path3279"
       style="opacity:1;fill:#ffffff;fill-opacity:1;fill-rule:nonzero;stroke:none;stroke-width:1;stroke-linecap:round;stroke-linejoin:round;stroke-miterlimit:4;stroke-dasharray:none;stroke-opacity:1"
       sodipodi:type="arc" />
    <path
       sodipodi:type="arc"
       style="opacity:1;fill:#ffffff;fill-opacity:1;fill-rule:nonzero;stroke:none;stroke-width:1;stroke-linecap:round;stroke-linejoin:round;stroke-miterlimit:4;stroke-dasharray:none;stroke-opacity:1"
       id="path3292"
       sodipodi:cx="17.67767"
       sodipodi:cy="3.3196902"
       sodipodi:rx="2.3864853"
       sodipodi:ry="1.1048543"
       d="M 20.064155,3.3196902 A 2.3864853,1.1048543 0 1 1 15.291184,3.3196902 A 2.3864853,1.1048543 0 1 1 20.064155,3.3196902 z"
       transform="matrix(0.3142696,0,0,1.1313708,17.944446,17.994199)" />
  </g>
  <g
     inkscape:groupmode="layer"
     id="layer7"
     inkscape:label="Edge"
     style="display:inline">
    <path
       style="opacity:1;fill:none;fill-opacity:1;fill-rule:evenodd;stroke:#000000;stroke-width:1;stroke-linecap:round;stroke-linejoin:round;stroke-miterlimit:4;stroke-dasharray:none;stroke-opacity:1;display:inline"
       d="M 11.524076,7 C 11.524076,4.78611 12.810189,4.5 15.024076,4.5 C 17.045258,4.5 22.018866,4.5 24.024076,4.5 C 26.024076,4.5 27.524076,6 27.524076,8 C 27.524076,10 27.5,19.5 27.5,19.5 C 27.5,19.5 27,19.5 26.5,19.5 C 26,19.5 25.475923,18 24,18 C 22.524074,18 20.5,19.072227 20.5,23.5 C 20.5,27.927777 22.648249,29 24,29 C 25.351747,29 26,27.5 26.5,27.5 C 27,27.5 27.475924,27.5 27.475924,27.5 C 27.475924,27.5 27.5,38 27.5,40 C 27.5,42 26,43.5 24,43.5 C 21.241371,43.5 18.03261,43.5 15,43.5 C 13,43.5 11.5,42.213887 11.5,40 C 11.5,38.524075 11.5,27.5 11.5,27.5 C 11.5,27.5 11.237961,27.5 10.5,27.5 C 9.762039,27.5 9.5,29 8,29 C 6.5,29 4.5,28 4.5,23.5 C 4.5,19 6.5,18 8,18 C 9.5,18 9.737964,19.5 10.475925,19.5 C 10.985211,19.5 11.025,19.5 11.475925,19.5 C 11.475925,19.5 11.524076,9.213887 11.524076,7 z"
       id="path3359"
       sodipodi:nodetypes="ccczczzzzzczcczczzzzscz" />
    <use
       x="0"
       y="0"
       xlink:href="#path3359"
       id="use3209"
       transform="translate(16,0)"
       width="48"
       height="48" />
  </g>
</svg>
